<?xml version="1.0" encoding="iso-8859-1"?>
<!-- Generator: Adobe Illustrator 19.0.0, SVG Export Plug-In . SVG Version: 6.00 Build 0)  -->
<svg version="1.1" id="Capa_1" xmlns="http://www.w3.org/2000/svg" xmlns:xlink="http://www.w3.org/1999/xlink" x="0px" y="0px"
	 viewBox="0 0 512.001 512.001" style="enable-background:new 0 0 512.001 512.001;" xml:space="preserve">
<g>
	<g>
		<path d="M386.829,211.801c-3.565,0-7.098,0.232-10.599,0.651v-44.294c0-8.493-6.885-15.378-15.378-15.378H51.722
			c-8.492,0-15.378,6.885-15.378,15.378v221.795c0,24.061,14.211,44.832,34.624,54.298c-3.283,6.37-5.148,13.585-5.148,21.23
			c0,25.651,20.868,46.519,46.519,46.519h187.896c25.651,0,46.518-20.868,46.518-46.519c0-7.646-1.866-14.86-5.148-21.23
			c20.387-9.454,34.585-30.184,34.622-54.205c3.502,0.419,7.037,0.651,10.601,0.651c48.98,0,88.828-40.126,88.828-89.448
			S435.809,211.801,386.829,211.801z M300.235,481.245H112.339c-8.693,0-15.764-7.072-15.764-15.764
			c0-8.693,7.072-15.764,15.764-15.764h187.896c8.693,0,15.763,7.072,15.763,15.764
			C315.998,474.173,308.928,481.245,300.235,481.245z M345.474,389.953c0,15.996-12.846,29.009-28.638,29.009h-16.601H112.339
			H95.738c-15.791,0-28.638-13.014-28.638-29.009V183.536h278.375V389.953z M386.829,359.941c-3.586,0-7.127-0.328-10.599-0.974
			V243.531c3.472-0.646,7.013-0.974,10.599-0.974c32.021,0,58.073,26.33,58.073,58.692
			C444.902,333.612,418.85,359.941,386.829,359.941z"/>
	</g>
</g>
<g>
	<g>
		<path d="M176.656,50.354c-6.203-8.052-7.753-15.844-4.877-24.522c0.433-1.306,0.939-2.541,1.48-3.691
			c2.819-5.985,1.649-13.081-3.072-17.716l-0.005-0.005c-7.572-7.432-20.231-5.18-24.741,4.423
			c-7.46,15.886-10.204,38.143,6.849,60.28c6.173,8.013,7.856,16.097,5.145,24.716c-0.397,1.262-0.862,2.457-1.361,3.573
			c-2.698,6.026-1.448,13.079,3.327,17.64c7.673,7.332,20.341,4.922,24.682-4.763C191.192,94.434,193.574,72.317,176.656,50.354z"/>
	</g>
</g>
<g>
	<g>
		<path d="M237.293,50.352c-6.203-8.052-7.753-15.844-4.877-24.522c0.425-1.284,0.921-2.498,1.45-3.629
			c2.789-5.964,1.647-13.02-3.03-17.654l-0.004-0.003c-7.559-7.486-20.28-5.261-24.789,4.374
			c-7.432,15.881-10.14,38.101,6.886,60.203c6.173,8.013,7.855,16.097,5.145,24.716c-0.397,1.262-0.862,2.457-1.361,3.573
			c-2.698,6.026-1.448,13.079,3.327,17.64c7.673,7.332,20.341,4.922,24.682-4.763C251.83,94.434,254.212,72.316,237.293,50.352z"/>
	</g>
</g>
<g>
</g>
<g>
</g>
<g>
</g>
<g>
</g>
<g>
</g>
<g>
</g>
<g>
</g>
<g>
</g>
<g>
</g>
<g>
</g>
<g>
</g>
<g>
</g>
<g>
</g>
<g>
</g>
<g>
</g>
</svg>
