<svg xmlns="http://www.w3.org/2000/svg" xmlns:xlink="http://www.w3.org/1999/xlink" version="1.1" style="" xml:space="preserve" width="512" height="512"><rect id="backgroundrect" width="100%" height="100%" x="0" y="0" fill="none" stroke="none"/>

















<g class="currentLayer" style=""><title>Layer 1</title><g id="svg_1" class="" fill="#ffffff" fill-opacity="1">
	<g id="svg_2" fill="#ffffff" fill-opacity="1">
		<path d="M226.13189473056792,0.6578947305679321 C101.80889473056793,0.6578947305679321 0.6578947305679321,101.80889473056793 0.6578947305679321,226.13189473056792 c0,124.33 101.151,225.474 225.474,225.474 c124.33,0 225.474,-101.144 225.474,-225.474 C451.6058947305679,101.80889473056793 350.4618947305679,0.6578947305679321 226.13189473056792,0.6578947305679321 zM226.13189473056792,409.9808947305679 c-101.373,0 -183.848,-82.475 -183.848,-183.848 S124.75889473056793,42.28389473056793 226.13189473056792,42.28389473056793 s183.848,82.475 183.848,183.848 S327.5048947305679,409.9808947305679 226.13189473056792,409.9808947305679 z" id="svg_3" fill="#ffffff" fill-opacity="1"/>
	</g>
</g><g id="svg_4" class="" fill="#ffffff" fill-opacity="1">
	<g id="svg_5" fill="#ffffff" fill-opacity="1">
		<path d="M505.902,476.472L386.574,357.144c-8.131-8.131-21.299-8.131-29.43,0c-8.131,8.124-8.131,21.306,0,29.43l119.328,119.328    c4.065,4.065,9.387,6.098,14.715,6.098c5.321,0,10.649-2.033,14.715-6.098C514.033,497.778,514.033,484.596,505.902,476.472z" id="svg_6" fill="#ffffff" fill-opacity="1"/>
	</g>
</g><g id="svg_7">
</g><g id="svg_8">
</g><g id="svg_9">
</g><g id="svg_10">
</g><g id="svg_11">
</g><g id="svg_12">
</g><g id="svg_13">
</g><g id="svg_14">
</g><g id="svg_15">
</g><g id="svg_16">
</g><g id="svg_17">
</g><g id="svg_18">
</g><g id="svg_19">
</g><g id="svg_20">
</g><g id="svg_21">
</g></g></svg>