<?xml version="1.0" encoding="utf-8"?>
<!-- Generator: Adobe Illustrator 17.0.0, SVG Export Plug-In . SVG Version: 6.00 Build 0)  -->
<!DOCTYPE svg PUBLIC "-//W3C//DTD SVG 1.1//EN" "http://www.w3.org/Graphics/SVG/1.1/DTD/svg11.dtd">
<svg version="1.1" id="Capa_1" xmlns="http://www.w3.org/2000/svg" xmlns:xlink="http://www.w3.org/1999/xlink" x="0px" y="0px"
	 width="200px" height="200px" viewBox="0 0 200 200" enable-background="new 0 0 200 200" xml:space="preserve">
<g>
	<path fill="#FFFFFF" d="M188.932,54.23c-7.003-13.582-17.216-25.576-29.533-34.684c-1.808-1.336-4.356-0.954-5.693,0.853
		c-1.337,1.807-0.954,4.356,0.853,5.693c11.319,8.371,20.703,19.391,27.139,31.87c6.743,13.076,10.161,27.22,10.161,42.04
		c0,50.651-41.208,91.86-91.86,91.86S8.14,150.652,8.14,100S49.348,8.14,100,8.14c2.247,0,4.07-1.823,4.07-4.07S102.247,0,100,0
		C44.86,0,0,44.86,0,100s44.86,100,100,100s100-44.86,100-100C199.999,84.097,196.173,68.27,188.932,54.23z"/>
	<path fill="#FFFFFF" d="M74.412,53.567c-1.273,0.724-2.059,2.075-2.059,3.538v89.318c0,2.248,1.823,4.07,4.07,4.07
		s4.07-1.822,4.07-4.07V64.265l60.258,35.872L96.44,128.685c-1.889,1.218-2.435,3.736-1.217,5.625
		c1.218,1.89,3.736,2.435,5.626,1.217l49.833-32.107c1.184-0.763,1.89-2.085,1.865-3.493s-0.777-2.704-1.987-3.426L78.505,53.608
		C77.246,52.859,75.684,52.843,74.412,53.567z"/>
</g>
</svg>
